# Created by Metasequoia

v 0.000000 3.175000 2.698320
v -1.909189 3.175000 1.909189
v -0.530330 3.717415 0.530330
v 0.000771 3.717415 0.750000
v 1.908000 3.175000 1.908000
v 0.000000 3.175000 2.700000
v 0.000000 3.717415 0.750000
v 0.530876 3.717415 0.529785
v 2.698320 3.175000 0.000000
v 1.909189 3.175000 1.909189
v 0.530330 3.717415 0.530330
v 0.750000 3.717415 -0.000771
v 1.908000 3.175000 -1.908000
v 2.700000 3.175000 0.000000
v 0.750000 3.717415 0.000000
v 0.529785 3.717415 -0.530876
v 0.000000 3.175000 -2.698320
v 1.909189 3.175000 -1.909189
v 0.530330 3.717415 -0.530330
v -0.000771 3.717415 -0.750000
v -1.908000 3.175000 -1.908000
v 0.000000 3.175000 -2.700000
v 0.000000 3.717415 -0.750000
v -0.530876 3.717415 -0.529785
v -2.698320 3.175000 0.000000
v -1.909189 3.175000 -1.909189
v -0.530330 3.717415 -0.530330
v -0.750000 3.717415 0.000771
v -1.908000 3.175000 1.908000
v -2.700000 3.175000 0.000000
v -0.750000 3.717415 0.000000
v -0.529785 3.717415 0.530876
v 0.194556 1.014741 0.267784
v 0.267784 1.014741 0.194556
v 0.267784 1.014741 -0.194556
v 0.194556 1.014741 -0.267784
v -0.194556 1.014741 -0.267784
v -0.267784 1.014741 -0.194556
v -0.267784 1.014741 0.194556
v -0.194556 1.014741 0.267784
# 40 vertices

f 2 4 3
f 2 1 4
f 7 5 8
f 7 6 5
f 11 9 12
f 11 10 9
f 16 14 13
f 16 15 14
f 20 18 17
f 20 19 18
f 21 23 22
f 21 24 23
f 25 27 26
f 25 28 27
f 29 31 30
f 29 32 31
f 39 40 29
f 37 38 21
f 13 35 36
f 5 33 34
f 3 4 2
f 4 1 2
f 8 5 7
f 5 6 7
f 12 9 11
f 9 10 11
f 13 14 16
f 14 15 16
f 17 18 20
f 18 19 20
f 22 23 21
f 23 24 21
f 26 27 25
f 27 28 25
f 30 31 29
f 31 32 29
f 29 40 39
f 21 38 37
f 36 35 13
f 34 33 5
# 40 elements

